<?xml version="1.0" standalone="no"?>
<!DOCTYPE svg PUBLIC "-//W3C//DTD SVG 20010904//EN"
 "http://www.w3.org/TR/2001/REC-SVG-20010904/DTD/svg10.dtd">
<svg version="1.0" xmlns="http://www.w3.org/2000/svg"
 width="700.000000pt" height="700.000000pt" viewBox="0 0 700.000000 700.000000"
 preserveAspectRatio="xMidYMid meet">
<metadata>
Created by potrace 1.11, written by Peter Selinger 2001-2013
</metadata>
<g transform="translate(0.000000,700.000000) scale(0.100000,-0.100000)"
fill="#000000" stroke="none">
<path d="M3728 6698 c-162 -21 -299 -88 -414 -202 -95 -96 -123 -144 -210
-359 -253 -624 -575 -1235 -936 -1780 -106 -159 -301 -434 -379 -533 -57 -71
-64 -100 -38 -143 17 -28 27 -33 72 -34 29 -1 51 21 130 126 491 653 925 1404
1217 2102 23 55 47 114 55 130 7 17 32 77 54 133 68 171 140 262 256 327 95
53 140 65 287 79 81 7 205 -24 282 -72 218 -135 303 -406 193 -618 -28 -54
-108 -125 -176 -157 -58 -28 -77 -32 -151 -32 -73 0 -92 4 -136 27 -86 45
-145 129 -159 228 -3 25 -13 55 -20 66 -30 47 -113 37 -135 -16 -32 -78 31
-244 129 -340 98 -96 212 -137 356 -127 216 14 400 156 475 367 19 52 24 85
24 170 0 58 -3 118 -6 134 -53 227 -212 412 -421 490 -101 38 -227 50 -349 34z"/>
<path d="M1043 5749 c-28 -10 -53 -48 -53 -79 0 -15 15 -42 35 -65 265 -297
428 -537 569 -837 54 -113 140 -324 152 -371 11 -45 41 -63 102 -59 29 2 62
56 56 90 -22 116 -223 549 -353 755 -67 108 -171 259 -191 277 -3 3 -32 39
-65 80 -90 113 -183 207 -209 212 -12 3 -32 1 -43 -3z"/>
<path d="M4548 3595 c-2 -1 -60 -6 -130 -9 -70 -4 -144 -8 -165 -11 -21 -3
-65 -7 -98 -10 -81 -7 -151 -14 -205 -20 -25 -3 -67 -7 -95 -10 -27 -3 -61 -8
-75 -10 -14 -3 -52 -7 -85 -10 -33 -4 -71 -8 -85 -10 -45 -7 -104 -15 -150
-20 -104 -12 -136 -17 -150 -20 -8 -3 -40 -7 -70 -10 -54 -6 -91 -11 -140 -20
-14 -2 -50 -7 -80 -10 -30 -3 -66 -8 -80 -10 -14 -2 -45 -7 -70 -10 -25 -4
-56 -8 -70 -10 -34 -5 -110 -16 -140 -20 -43 -7 -274 -37 -300 -40 -14 -1 -38
-5 -55 -8 -16 -4 -55 -9 -85 -12 -30 -3 -82 -10 -115 -15 -33 -5 -85 -11 -115
-15 -30 -3 -66 -8 -80 -10 -28 -5 -112 -16 -150 -20 -14 -1 -45 -5 -70 -8 -25
-4 -72 -9 -105 -12 -33 -4 -67 -8 -75 -10 -8 -3 -40 -7 -70 -10 -30 -3 -71 -7
-90 -10 -59 -8 -157 -20 -250 -30 -14 -1 -52 -6 -85 -9 -114 -14 -130 -15
-190 -21 -33 -3 -71 -8 -85 -10 -14 -2 -59 -7 -100 -10 -41 -3 -86 -8 -100
-10 -22 -4 -81 -10 -184 -20 -15 -2 -40 -12 -55 -22 -69 -52 -16 -153 72 -139
18 3 68 8 111 11 44 4 87 8 96 10 10 2 53 6 96 10 43 4 90 8 104 10 14 2 52 7
85 10 33 3 74 8 90 10 17 2 57 7 90 10 33 3 112 12 175 20 63 8 142 17 175 20
33 4 67 8 75 10 8 2 42 7 75 10 33 4 71 8 85 10 14 2 52 7 85 10 33 4 87 10
120 15 33 5 78 11 100 14 74 10 204 27 237 31 18 3 53 7 78 10 25 3 56 8 70
10 14 2 45 7 70 10 25 3 56 8 70 10 14 2 63 9 110 15 97 13 131 18 215 30 33
5 85 12 115 15 30 3 66 8 80 10 52 11 67 13 130 20 36 4 72 9 80 10 8 2 42 6
75 10 32 3 62 8 65 10 3 1 34 6 70 9 36 4 76 8 89 11 13 2 44 7 70 10 48 5
194 23 246 30 17 2 50 6 75 9 25 4 74 8 110 11 36 3 75 8 87 10 12 3 55 8 95
10 40 3 91 8 113 10 249 26 701 25 955 -1 79 -8 318 -51 408 -74 349 -86 688
-227 1023 -426 60 -36 123 -67 139 -69 67 -8 108 86 58 132 -64 59 -377 229
-597 323 -242 105 -613 217 -806 245 -23 3 -50 7 -60 9 -48 9 -104 17 -160 22
-33 3 -78 8 -100 11 -44 5 -592 13 -597 8z"/>
<path d="M3189 3215 c-19 -10 -36 -37 -60 -97 -263 -660 -576 -1258 -962
-1838 -137 -205 -146 -218 -319 -451 -111 -151 -124 -182 -94 -221 19 -26 62
-39 91 -28 27 10 67 59 223 273 92 126 357 518 408 604 10 18 62 106 115 195
82 138 239 418 253 453 21 49 285 -457 371 -711 29 -87 60 -124 103 -124 48 1
85 46 76 94 -6 35 -63 191 -108 294 -77 180 -231 459 -317 576 -16 22 -29 44
-29 49 0 5 19 48 41 96 153 319 315 700 326 762 2 18 -3 35 -19 52 -29 32 -66
40 -99 22z"/>
<path d="M4698 3204 c-27 -14 -28 -16 -133 -274 -180 -441 -478 -1015 -749
-1445 -137 -219 -475 -703 -537 -771 -33 -35 -40 -78 -19 -112 22 -35 61 -47
98 -30 54 27 419 539 653 918 34 56 106 178 112 190 4 8 13 24 20 35 132 217
365 677 499 985 28 63 56 129 64 145 31 70 105 261 108 280 3 16 -18 75 -27
75 -1 0 -16 4 -33 9 -21 6 -38 4 -56 -5z"/>
<path d="M1042 2674 c-35 -14 -57 -55 -47 -89 3 -11 28 -45 56 -75 287 -312
515 -689 669 -1105 12 -33 27 -72 32 -87 13 -35 30 -48 68 -54 24 -4 36 1 60
25 36 35 36 43 9 124 -139 413 -389 838 -689 1171 -76 85 -76 85 -102 95 -16
6 -34 5 -56 -5z"/>
</g>
</svg>
