<svg xmlns="http://www.w3.org/2000/svg" xmlns:xlink="http://www.w3.org/1999/xlink" viewBox="0 0 1120 583" style="background-color:#121212;"><defs><style>.a{fill:#4f9a94;}.b{fill:none;stroke-linecap:round;stroke-linejoin:round;stroke-width:6px;stroke:url(#a);}</style><linearGradient id="a" x1="-81.2" y1="446.85" x2="268.02" y2="97.63" gradientUnits="userSpaceOnUse"><stop offset="0" stop-color="#4f9a94"/><stop offset="1" stop-color="#80cbc4"/></linearGradient></defs><path class="a" d="M1037.48,359.55V230a3.6,3.6,0,0,1,7.2,0v70.8c12-46.2,38.4-72.9,71.7-73.5a3.6,3.6,0,0,1,0,7.2c-39.9,0-71.7,47.4-71.7,125.1a3.6,3.6,0,0,1-7.2,0Z"/><path class="a" d="M850.88,449a3.6,3.6,0,0,1-2.7-3.6,3.47,3.47,0,0,1,3.6-3.6,2.53,2.53,0,0,1,2.1.6,32.64,32.64,0,0,0,10.8,1.8,35.34,35.34,0,0,0,32.4-22.2l25.2-61.5-55.8-128.4a7.63,7.63,0,0,1-.6-2.1,3.65,3.65,0,0,1,3.6-3.6c2.1,0,3,.9,3.9,2.7l52.8,122.1,40.5-98.4c8.4-20.4,20.4-34.5,37.2-40.8a69.47,69.47,0,0,1,21-3.6,3.6,3.6,0,0,1,0,7.2c-22.2,0-38.7,8.7-51.6,40.2l-69.6,168.6a42.51,42.51,0,0,1-39,26.7A44.07,44.07,0,0,1,850.88,449Z"/><path class="a" d="M714.38,447.75V230a3.6,3.6,0,0,1,7.2,0v34.2a68.23,68.23,0,0,1,129.3,30.3c0,37.8-27.9,68.4-62.1,68.4-24.9,0-45.9-18-45.9-39.9a3.47,3.47,0,0,1,3.6-3.6c2.1,0,3.6,1.5,3.6,4.5.3,17.7,17.4,31.8,38.7,31.8,30.3,0,54.9-27.3,54.9-61.2a60.56,60.56,0,0,0-60.9-60.9c-33,0-61.2,25.8-61.2,58.5v155.7a3.6,3.6,0,0,1-7.2,0Z"/><path class="a" d="M527.78,449a3.6,3.6,0,0,1-2.7-3.6,3.47,3.47,0,0,1,3.6-3.6,2.53,2.53,0,0,1,2.1.6,32.64,32.64,0,0,0,10.8,1.8A35.34,35.34,0,0,0,574,422l25.2-61.5-55.8-128.4a7.63,7.63,0,0,1-.6-2.1,3.65,3.65,0,0,1,3.6-3.6c2.1,0,3,.9,3.9,2.7l52.8,122.1,40.5-98.4c8.4-20.4,20.4-34.5,37.2-40.8a69.47,69.47,0,0,1,21-3.6,3.6,3.6,0,1,1,0,7.2c-22.2,0-38.7,8.7-51.6,40.2l-69.6,168.6a42.51,42.51,0,0,1-39,26.7A44.07,44.07,0,0,1,527.78,449Z"/><path class="a" d="M391.28,447.75V230a3.6,3.6,0,0,1,7.2,0v34.2a68.23,68.23,0,0,1,129.3,30.3c0,37.8-27.9,68.4-62.1,68.4-24.9,0-45.9-18-45.9-39.9a3.47,3.47,0,0,1,3.6-3.6c2.1,0,3.6,1.5,3.6,4.5.3,17.7,17.4,31.8,38.7,31.8,30.3,0,54.9-27.3,54.9-61.2a60.56,60.56,0,0,0-60.9-60.9c-33,0-61.2,25.8-61.2,58.5v155.7a3.6,3.6,0,0,1-7.2,0Z"/><path class="b" d="M170.29,385.13a24.28,24.28,0,0,1-.39,3.7c-1.73,17.85-16.37,39.48-25.25,50.68s-8.93,11.13-16,20l-.51.64,11.7,9.42s8.23-7.9,12.23-12c31.67-32.06,68.44-59.94,98.62-93.44,39.39-43.73-29.42-61.05-66.09-66.7-8.27-1.28-46.45-5.54-57.71-5.91m-71.1,0a178.56,178.56,0,0,0-16,33c-20.7,57.27-2.67,100.72,14,238,.91,7.54,1.61,13.6,2,17h15v-25c0-17,.1-38.07,12-57,.83-1.31,1.55-2.36,2-3M135.7,270.06a445.73,445.73,0,0,0,35.93-54.28,444.91,444.91,0,0,0,26.78-56.72m-84.14,38.55c2.34,3.23,4.68,6.72,7,10.5a147.86,147.86,0,0,1,14,30.46m-66.76,31a443.77,443.77,0,0,0,35.94-54.28,444.27,444.27,0,0,0,26.78-56.72M68.88,238.86a148.24,148.24,0,0,0-14-30.45,151.5,151.5,0,0,0-19.61-25.72M291,168.44A177.89,177.89,0,0,0,258.22,152c-57-21.49-100.67-4.06-238.17,10.72-7.55.81-13.62,1.42-17,1.76M68.72,102a148.24,148.24,0,0,0-14-30.45A151.5,151.5,0,0,0,35.11,45.84M147.49,34.11a16.67,16.67,0,0,0,17.34,16,20.85,20.85,0,0,0,20-21.67,26.05,26.05,0,0,0-27.09-25C144.46,4,135.23,10.92,131,21.72a444.27,444.27,0,0,1-26.78,56.72,443.77,443.77,0,0,1-35.94,54.28"/></svg>