<svg xmlns="http://www.w3.org/2000/svg" xmlns:xlink="http://www.w3.org/1999/xlink" viewBox="0 0 112 112"><defs><style>.a{fill:none;}.b{fill:#121212;}.c{clip-path:url(#a);}.d{fill:url(#c);}</style><clipPath id="a"><rect class="a" x="30.75" y="6" width="50.5" height="100"/></clipPath><linearGradient id="c" x1="-0.17" y1="-0.45" x2="0" y2="-0.45" gradientTransform="matrix(349.22, -349.22, -349.22, -349.22, -81.22, -135.73)" gradientUnits="userSpaceOnUse"><stop offset="0" stop-color="#4f9a94"/><stop offset="1" stop-color="#80cbc4"/></linearGradient></defs><rect class="b" width="112" height="112"/><g class="c"><g class="c"><path class="d" d="M60.43,72.05v.09a6.05,6.05,0,0,1-.07.62h0c-.33,3.25-2.88,7-4.43,8.93s-1.54,1.92-2.75,3.44l-.09.11L52.76,85l.27-.34,2,1.62-.27.33-.29-.31s1.41-1.35,2.09-2C62,78.7,68.34,73.92,73.49,68.2a6.05,6.05,0,0,0,1.91-3.88c.18-3.93-8-6.17-13-6.87-1.39-.21-8-1-9.86-1a.42.42,0,0,1-.42-.44.43.43,0,0,1,.45-.41c2,.06,8.5.79,10,1,5,.83,13.56,2.62,13.74,7.71a6.91,6.91,0,0,1-2.13,4.46c-5.23,5.79-11.55,10.58-17,16.06-.69.71-2.11,2.06-2.11,2.06a.43.43,0,0,1-.56,0l-2-1.62a.42.42,0,0,1-.07-.6l.09-.11c1.22-1.53,1.23-1.52,2.75-3.44s4-5.6,4.25-8.48h0c0-.23.07-.45.06-.54v0a.43.43,0,0,1,.86-.06ZM40.69,56.24A30.77,30.77,0,0,0,38,61.83,25.89,25.89,0,0,0,36.41,71c0,6.86,2.05,15.46,4,31.5.16,1.3.28,2.34.34,2.93l-.42,0v-.42H42.9v.42h-.43v-4.29h0c0-2.92,0-6.64,2.13-10h0l.36-.53a.43.43,0,1,1,.7.49c-.08.11-.19.28-.33.5h0c-2,3.12-2,6.64-2,9.56h0v4.29a.41.41,0,0,1-.43.43H40.33a.43.43,0,0,1-.43-.38c-.07-.58-.19-1.62-.34-2.91-2-16-4-24.58-4-31.61a26.88,26.88,0,0,1,1.62-9.47A31.9,31.9,0,0,1,40,55.79a.43.43,0,0,1,.73.45Zm13-4.19a76.39,76.39,0,0,0,6.14-9.27,75.92,75.92,0,0,0,4.57-9.69.42.42,0,0,1,.55-.24.42.42,0,0,1,.25.56A77,77,0,0,1,60.6,43.2a77.06,77.06,0,0,1-6.2,9.38.43.43,0,1,1-.68-.53Zm-3-12.43c.41.56.82,1.17,1.22,1.83h0a26.08,26.08,0,0,1,2.45,5.32.44.44,0,0,1-.28.55.43.43,0,0,1-.54-.28,25.13,25.13,0,0,0-2.36-5.14h0c-.39-.64-.79-1.23-1.18-1.78a.43.43,0,0,1,.09-.6.44.44,0,0,1,.6.1ZM42.17,52a76,76,0,0,0,6.14-9.27A74.58,74.58,0,0,0,52.88,33a.43.43,0,0,1,.56-.24.42.42,0,0,1,.24.55,75.54,75.54,0,0,1-4.62,9.8,77,77,0,0,1-6.21,9.38.43.43,0,0,1-.68-.53Zm0-4.88A24.84,24.84,0,0,0,39.81,42a25.38,25.38,0,0,0-3.32-4.35.43.43,0,0,1,.63-.59,27.17,27.17,0,0,1,3.42,4.49A26.08,26.08,0,0,1,43,46.82a.44.44,0,0,1-.28.55.43.43,0,0,1-.54-.28ZM80.5,35.22A30.44,30.44,0,0,0,75,32.44a26,26,0,0,0-9.65-1.7c-6.78,0-15.38,1.88-31.06,3.56h0l-2.93.31a.43.43,0,0,1-.47-.39.44.44,0,0,1,.38-.47l2.93-.3h0c15.65-1.68,24.21-3.57,31.15-3.57a27,27,0,0,1,10,1.75A31.08,31.08,0,0,1,81,34.5a.43.43,0,1,1-.46.72ZM42.14,23.58a24.84,24.84,0,0,0-2.36-5.14,25.66,25.66,0,0,0-3.31-4.34.43.43,0,1,1,.62-.59A26.27,26.27,0,0,1,43,23.32a.43.43,0,1,1-.82.26ZM56.51,11.77a2.43,2.43,0,0,0,2.43,2.33H59a3.15,3.15,0,0,0,3-3.14.53.53,0,0,0,0-.13,4,4,0,0,0-4-3.89h-.16a4.4,4.4,0,0,0-4.2,2.86A76.42,76.42,0,0,1,49,19.61,77,77,0,0,1,42.82,29a.43.43,0,0,1-.6.08.44.44,0,0,1-.08-.61,74.11,74.11,0,0,0,6.14-9.27A76.09,76.09,0,0,0,52.86,9.5a5.27,5.27,0,0,1,5-3.41H58a4.9,4.9,0,0,1,4.9,4.7c0,.06,0,.11,0,.17a4,4,0,0,1-3.85,4h-.14a3.29,3.29,0,0,1-3.29-3.16.43.43,0,0,1,.42-.44.42.42,0,0,1,.44.41Z"/></g></g></svg>